HIERARCHY
ROOT hip
{
	OFFSET 0.000000 0.000000 0.000000 
	CHANNELS 6 Xposition Yposition Zposition Xrotation Zrotation Yrotation
	JOINT abdomen
	{
		OFFSET 0.000000 3.402643 0.000000 
		CHANNELS 3 Xrotation Zrotation Yrotation
		JOINT chest
		{
			OFFSET 0.000000 8.438565 -0.680529 
			CHANNELS 3 Xrotation Zrotation Yrotation
			JOINT neck
			{
				OFFSET 0.000000 10.207942 -0.272212 
				CHANNELS 3 Xrotation Zrotation Yrotation
				JOINT head
				{
					OFFSET 0.000000 3.130431 0.000000 
					CHANNELS 3 Xrotation Zrotation Yrotation
					End Site
					{
						OFFSET 0.000000 3.130435 0.000000 
					}
				}
			}
			JOINT lCollar
			{
				OFFSET 3.470700 6.669187 -0.816635 
				CHANNELS 3 Yrotation Zrotation Xrotation
				JOINT lShldr
				{
					OFFSET 3.198488 0.000000 0.000000 
					CHANNELS 3 Zrotation Yrotation Xrotation
					JOINT lForeArm
					{
						OFFSET 10.139888 0.000000 0.000000 
						CHANNELS 3 Yrotation Zrotation Xrotation
						JOINT lHand
						{
							OFFSET 8.370511 0.000000 0.000000 
							CHANNELS 3 Zrotation Yrotation Xrotation
							End Site
							{
								OFFSET 4.083176 0.000000 0.000000 
							}
						}
					}
				}
			}
			JOINT rCollar
			{
				OFFSET -3.470700 6.669187 -0.816635 
				CHANNELS 3 Yrotation Zrotation Xrotation
				JOINT rShldr
				{
					OFFSET -3.198488 0.000000 0.000000 
					CHANNELS 3 Zrotation Yrotation Xrotation
					JOINT rForeArm
					{
						OFFSET -10.139888 0.000000 0.000000 
						CHANNELS 3 Yrotation Zrotation Xrotation
						JOINT rHand
						{
							OFFSET -8.370511 0.000000 0.000000 
							CHANNELS 3 Zrotation Yrotation Xrotation
							End Site
							{
								OFFSET -4.083176 0.000000 0.000000 
							}
						}
					}
				}
			}
		}
	}
	JOINT lThigh
	{
		OFFSET 5.308129 -1.633274 1.361059 
		CHANNELS 3 Xrotation Zrotation Yrotation
		JOINT lShin
		{
			OFFSET -2.041588 -20.007561 0.000000 
			CHANNELS 3 Xrotation Zrotation Yrotation
			JOINT lFoot
			{
				OFFSET 0.000000 -19.190928 -1.224953 
				CHANNELS 3 Xrotation Yrotation Zrotation
				End Site
				{
					OFFSET 0.000000 -2.449906 4.627600 
				}
			}
		}
	}
	JOINT rThigh
	{
		OFFSET -5.308129 -1.633274 1.361059 
		CHANNELS 3 Xrotation Zrotation Yrotation
		JOINT rShin
		{
			OFFSET 2.041588 -20.007561 0.000000 
			CHANNELS 3 Xrotation Zrotation Yrotation
			JOINT rFoot
			{
				OFFSET 0.000000 -19.190928 -1.224953 
				CHANNELS 3 Xrotation Yrotation Zrotation
				End Site
				{
					OFFSET 0.000000 -2.449906 4.627600 
				}
			}
		}
	}
}
MOTION
Frames: 17
Frame Time: 0.033333
1.191571 50.267319 0.124214 -0.019092 0.107421 0.234393 0.000000 0.000000 0.000000 -8.223808 0.439369 1.123089 4.402807 6.353284 -3.802521 8.840262 -0.244129 -0.556677 -3.521967 9.154817 6.304141 -14.890588 14.366572 -35.220627 -20.278353 4.997930 43.895885 11.838696 8.963095 -8.654423 3.089181 -14.089146 8.026228 9.481312 -4.378871 -43.151802 11.749407 -5.005639 44.999260 -3.944704 -14.885242 -8.935550 1.102399 4.743934 5.510324 8.833055 -3.251341 3.918068 -8.333133 0.329258 -1.286240 1.823090 -6.662261 -12.320845 10.066849 1.608409 -18.552832 -10.370893 -0.113986 0.150046 
1.183291 50.270168 0.102648 0.195512 0.048828 0.234383 0.000000 0.000000 0.000000 -8.437379 0.527251 1.074353 4.605106 6.129920 -3.692564 8.614067 -0.078121 -0.576185 -3.521967 9.154817 6.304141 -14.939590 14.387047 -35.043049 -20.213203 4.998363 43.935162 11.672779 9.123196 -8.647960 3.089181 -14.089146 8.026228 9.380590 -4.393074 -42.995525 11.708258 -5.005198 45.000999 -3.902974 -15.048042 -8.946057 0.780546 4.853735 5.586157 8.956981 -3.307914 3.876792 -8.363386 0.388631 -1.269417 1.687797 -6.548754 -12.213431 9.837381 1.625074 -18.622349 -10.204785 -0.125275 0.123041 
1.178130 50.270168 0.098811 0.195417 0.029297 0.205083 0.000000 0.000000 0.000000 -8.475892 0.556543 1.074358 4.732939 6.217422 -3.722734 8.634995 -0.224599 -0.556675 -3.521967 9.154817 6.304141 -15.053585 14.335130 -35.055389 -20.237778 4.996169 43.901413 11.623520 9.183177 -8.640356 3.089181 -14.089146 8.026228 9.353009 -4.375376 -42.884922 11.721974 -5.005344 45.000706 -3.854859 -15.249180 -8.954926 0.828557 4.868829 5.595890 8.880161 -3.318793 3.900929 -8.333905 0.376806 -1.274888 1.697206 -6.528660 -12.201838 9.787420 1.624324 -18.615288 -10.146277 -0.101660 0.091282 
1.162660 50.275845 0.087033 0.097756 0.029297 0.195317 0.000000 0.000000 0.000000 -8.329081 0.595606 1.035303 4.772001 6.217422 -3.722734 8.664907 -0.292955 -0.546918 -3.521967 9.154817 6.304141 -15.245113 14.291566 -35.192242 -20.311966 4.998962 43.971432 11.312868 9.096782 -8.649254 3.089181 -14.089146 8.026228 9.275809 -4.361144 -42.652599 11.707419 -5.007180 44.991478 -3.796560 -15.308043 -8.953433 0.965709 4.910589 5.654441 8.828303 -3.366106 3.842883 -8.324110 0.351303 -1.254502 1.715734 -6.506775 -12.199919 9.900566 1.608289 -18.630205 -10.195131 -0.107833 0.142312 
1.153015 50.277260 0.083147 0.097756 0.029297 0.195317 0.000000 0.000000 0.000000 -8.359488 0.566324 0.976611 4.894380 6.062424 -3.583685 8.565145 -0.078122 -0.507825 -3.521967 9.154817 6.304141 -15.265621 14.310687 -35.107395 -20.291523 4.997700 44.054661 11.321654 9.047764 -8.648953 3.089181 -14.089146 8.026228 9.280469 -4.313499 -42.689754 11.707419 -5.007180 44.991478 -3.861596 -15.160716 -8.952678 0.916130 4.915798 5.656152 8.894116 -3.388969 3.876474 -8.324583 0.380420 -1.240975 1.766618 -6.481752 -12.177521 9.737382 1.604238 -18.756126 -10.253493 -0.120279 0.049742 
1.158020 50.268749 0.068533 0.156330 0.019531 0.234378 0.000000 0.000000 0.000000 -8.399690 0.537042 0.908255 4.746529 6.207882 -3.692555 8.684247 -0.283191 -0.527386 -3.521967 9.154817 6.304141 -15.254334 14.299029 -35.177204 -20.294039 5.001023 44.085876 11.471562 8.983560 -8.645349 3.089181 -14.089146 8.026228 9.347866 -4.357538 -42.700348 11.693702 -5.007032 44.992622 -3.957827 -15.167652 -8.947026 0.897210 4.928044 5.647662 8.729615 -3.385187 3.956257 -8.236356 0.336714 -1.228964 1.638699 -6.469004 -12.167674 9.885205 1.595241 -18.670740 -10.155974 -0.122333 0.124498 
1.147141 50.274895 0.062153 0.205158 0.029297 0.156255 0.000000 0.000000 0.000000 -8.468652 0.478450 0.947314 4.737370 6.266009 -3.742145 8.909047 -0.292955 -0.546918 -3.521967 9.154817 6.304141 -15.185783 14.293857 -34.963696 -20.262905 4.994781 43.705921 11.948387 8.835341 -8.671239 3.089181 -14.089146 8.026228 9.412313 -4.314559 -42.811817 11.728906 -5.012250 45.001560 -3.776722 -15.004996 -8.943468 0.818880 4.906904 5.628449 8.783118 -3.328931 3.945954 -8.246173 0.370562 -1.256226 1.560395 -6.470591 -12.129064 9.900000 1.568836 -18.672216 -10.185272 -0.122276 0.124507 
1.137301 50.275845 0.071751 0.185560 0.009766 0.078127 0.000000 0.000000 0.000000 -8.497126 0.517504 0.966846 4.812930 6.304988 -3.743210 8.948488 -0.351548 -0.517628 -3.521967 9.154817 6.304141 -15.140388 14.335683 -34.842030 -20.257757 4.994448 43.727146 11.684897 8.995483 -8.656112 3.089181 -14.089146 8.026228 9.416290 -4.280603 -42.849598 11.721974 -5.005344 45.000706 -3.802066 -15.069899 -8.948317 0.887548 4.947323 5.669010 8.796673 -3.369584 3.884325 -8.256208 0.379685 -1.241268 1.590021 -6.440696 -12.086879 9.840176 1.578097 -18.713745 -10.204772 -0.121994 0.103010 
1.131197 50.274422 0.069711 0.185572 0.029297 0.048833 0.000000 0.000000 0.000000 -8.497948 0.478450 0.947314 4.770520 6.256473 -3.713024 9.016368 -0.292956 -0.527387 -3.521967 9.154817 6.304141 -15.075769 14.305344 -34.967278 -20.287552 4.994810 43.924114 11.335476 9.258667 -8.630761 3.089181 -14.089146 8.026228 9.432301 -4.316613 -42.601944 11.666267 -5.006738 44.994057 -4.069188 -15.097249 -8.938323 0.887599 4.938138 5.658485 8.767404 -3.379314 4.071024 -8.266076 0.396003 -1.244439 1.649534 -6.443604 -12.086564 9.737889 1.565485 -18.583229 -10.145901 -0.149065 0.079137 
1.126276 50.267319 0.058268 0.136764 0.029297 0.087896 0.000000 0.000000 0.000000 -8.411691 0.400341 0.898484 4.756927 6.198138 -3.692556 8.995913 -0.185538 -0.546904 -3.521967 9.154817 6.304141 -14.972297 14.263166 -34.990932 -20.289408 4.995193 43.863403 11.949121 9.115920 -8.655700 3.089181 -14.089146 8.026228 9.556556 -4.309470 -42.607525 11.666267 -5.006738 44.994057 -4.073119 -15.277907 -8.943890 0.936847 4.959625 5.708011 8.708258 -3.447387 4.070992 -8.334965 0.364192 -1.173355 1.677380 -6.458629 -12.107410 9.747189 1.574995 -18.611294 -10.214450 -0.121254 0.060115 
1.116294 50.267319 0.057502 0.117192 0.009766 0.029299 0.000000 0.000000 0.000000 -8.382481 0.390576 0.908249 4.749912 6.188528 -3.673141 9.074603 -0.263662 -0.507852 -3.521967 9.154817 6.304141 -14.871426 14.266452 -34.895786 -20.273695 4.993464 44.087158 12.172994 8.847151 -8.671788 3.089181 -14.089146 8.026228 9.645311 -4.289985 -42.791260 11.735690 -5.005491 44.999561 -3.778617 -15.245310 -8.955593 0.994169 4.982910 5.708385 8.671032 -3.404554 4.017633 -8.237039 0.379343 -1.209193 1.676965 -6.409609 -12.103309 9.793949 1.579533 -18.569822 -10.224150 -0.134273 0.075415 
1.113034 50.267799 0.044073 0.185547 0.000000 -0.048828 0.000000 0.000000 0.000000 -8.411242 0.419868 0.918016 4.970914 6.121033 -3.564255 8.888596 -0.234368 -0.459021 -3.521967 9.154817 6.304141 -14.875286 14.183227 -35.113922 -20.317450 4.994175 44.282017 11.746383 8.978072 -8.663008 3.089181 -14.089146 8.026228 9.697234 -4.262208 -42.728424 11.708258 -5.005198 45.000999 -3.749221 -15.299805 -8.956919 0.878222 4.987331 5.672169 8.756184 -3.388359 4.158918 -8.226747 0.385691 -1.259928 1.529984 -6.407336 -12.094556 9.928842 1.588205 -18.493423 -10.224185 -0.133496 0.086603 
1.117054 50.263535 0.042839 0.185480 0.039062 -0.097656 0.000000 0.000000 0.000000 -8.333742 0.380810 0.918013 5.111024 6.043566 -3.485548 8.790836 -0.253900 -0.400430 -3.521967 9.154817 6.304141 -14.918354 14.093745 -35.248512 -20.347967 4.995997 44.157131 11.837247 8.972496 -8.652201 3.089181 -14.089146 8.026228 9.762411 -4.238940 -42.764500 11.708258 -5.005198 45.000999 -3.759577 -15.142056 -8.952537 0.848021 4.935024 5.610088 8.778741 -3.336553 4.219122 -8.245234 0.343422 -1.301034 1.443130 -6.479319 -12.170120 10.101643 1.596290 -18.366108 -10.341356 -0.126933 0.057241 
1.115675 50.266373 0.036885 0.175653 0.068359 -0.107422 0.000000 0.000000 0.000000 -8.167677 0.429643 0.820363 5.363595 5.956022 -3.455401 8.653881 -0.205072 -0.429720 -3.521967 9.154817 6.304141 -15.098062 13.932608 -35.429153 -20.409575 4.992367 43.573689 11.386192 9.189186 -8.640132 3.089181 -14.089146 8.026228 9.763269 -4.184952 -42.635979 11.666267 -5.006738 44.994057 -3.984068 -15.132345 -8.946311 0.896133 4.894485 5.556697 8.690845 -3.355828 4.340982 -8.236482 0.359066 -1.240082 1.404258 -6.556055 -12.245654 10.191653 1.646262 -18.367243 -10.468337 -0.111547 0.021341 
1.106447 50.257389 0.041136 0.078125 0.000000 -0.117188 0.000000 0.000000 0.000000 -7.815650 0.517536 0.732480 5.454000 6.238126 -3.545874 8.460267 -0.527334 -0.351638 -3.521967 9.154817 6.304141 -15.252851 13.730222 -35.798729 -20.475052 5.002166 43.194660 11.137204 9.100464 -8.630724 3.089181 -14.089146 8.026228 9.963056 -4.080952 -42.896797 11.735690 -5.005491 44.999561 -3.903410 -14.997922 -8.942053 0.925879 4.982183 5.680511 8.871676 -3.378048 4.336803 -8.383780 0.413070 -1.204354 1.531124 -6.458411 -12.207063 10.152511 1.624725 -18.283154 -10.400076 -0.082790 -0.018680 
1.093152 50.260685 0.034802 0.039136 -0.039062 -0.107429 0.000000 0.000000 0.000000 -7.455145 0.566377 0.586005 5.240682 6.403347 -3.615955 8.715277 -0.771472 -0.322368 -3.521967 9.154817 6.304141 -15.396351 13.474911 -36.255951 -20.581167 4.993986 43.237782 10.968286 9.279851 -8.622631 3.089181 -14.089146 8.026228 10.150861 -3.966658 -42.971363 11.776838 -5.005934 44.996956 -4.000043 -14.954726 -8.932756 0.886802 5.070353 5.747076 8.994555 -3.405413 4.238661 -8.352846 0.359262 -1.304540 1.522334 -6.384969 -12.141871 10.210868 1.587719 -18.321911 -10.380455 -0.096572 -0.014555 
1.079479 50.250763 0.040384 -0.165924 -0.048828 -0.107430 0.000000 0.000000 0.000000 -6.791965 0.576151 0.488355 4.880986 6.393044 -3.694680 9.126390 -0.839827 -0.361432 -3.521967 9.154817 6.304141 -15.502878 13.075746 -36.885746 -20.739229 4.988972 42.982075 10.575654 9.506701 -8.607332 3.089181 -14.089146 8.026228 10.436359 -3.787390 -43.382359 11.942246 -5.005721 44.996769 -3.659642 -14.795304 -8.946376 1.210801 5.097331 5.790364 8.764669 -3.426872 4.243708 -8.363576 0.328246 -1.200833 1.668227 -6.383584 -12.209476 10.346315 1.596728 -18.264971 -10.449012 -0.088712 0.043311 
